<?xml version="1.0" encoding="UTF-8"?>
<svg id="Layer_1" data-name="Layer 1" xmlns="http://www.w3.org/2000/svg" viewBox="0 0 744.79 335.42">
  <defs>
    <style>
      .cls-1 {
        letter-spacing: .69em;
      }

      .cls-2 {
        letter-spacing: .73em;
      }

      .cls-3 {
        letter-spacing: .72em;
      }

      .cls-4 {
        letter-spacing: .72em;
      }

      .cls-5 {
        font-size: 37px;
      }

      .cls-5, .cls-6 {
        fill: #231f20;
        font-family: Reclamo-ExtraLight, Reclamo;
        font-weight: 200;
      }

      .cls-6 {
        font-size: 133px;
        letter-spacing: .16em;
      }

      .cls-7 {
        fill: none;
        stroke: #000;
        stroke-width: 5px;
      }

      .cls-7, .cls-8 {
        stroke-miterlimit: 10;
      }

      .cls-8 {
        stroke: #231f20;
        stroke-width: 3.23px;
      }
    </style>
  </defs>
  <text class="cls-6" transform="translate(0 256)"><tspan x="0" y="0">MEISNER</tspan></text>
  <text class="cls-5" transform="translate(154.37 327.42)"><tspan class="cls-3" x="0" y="0">I</tspan><tspan class="cls-1" x="34.71" y="0">N</tspan><tspan class="cls-3" x="88.91" y="0">TERIO</tspan><tspan class="cls-2" x="330.96" y="0">R</tspan><tspan class="cls-4" x="382.87" y="0">S</tspan></text>
  <path class="cls-8" d="m406.64,13.95c-13.15,0-24.58,4.38-33.96,13.03l-.48.44-.48-.44c-9.31-8.42-20.61-12.69-33.58-12.69h-13.55v97.44h13.55c4.11,0,8.12-.44,11.92-1.3l-1.22-2.62c-3.41.74-7,1.11-10.7,1.11h-10.52V17.1h10.52c12.13,0,22.72,3.99,31.48,11.87l.54.49-.5.53c-8.92,9.51-13.44,20.5-13.44,32.68,0,7.26,1.61,14.15,4.78,20.46,2.21,4.39,5.24,8.63,9.01,12.58l.3.32c.19.2.37.4.57.59.51.52,1.07,1.05,1.69,1.63.46-.43.9-.86,1.32-1.28.36-.36.69-.72,1.03-1.08l.18-.2c3.71-3.95,6.68-8.18,8.83-12.55,3.06-6.21,4.61-12.99,4.61-20.13,0-12.33-4.64-23.45-13.79-33.05l-.5-.53.54-.49c8.83-8.08,19.54-12.18,31.84-12.18h10.52v94.62h3.04V13.95h-13.56Zm-21.12,49.06c0,7.44-1.76,14.43-5.24,20.79-1.88,3.43-4.3,6.75-7.2,9.86l-.52.55-.52-.55c-2.96-3.13-5.43-6.44-7.34-9.86-3.6-6.44-5.43-13.55-5.43-21.13,0-11.47,4.19-21.78,12.44-30.64l.52-.55.52.55c8.47,8.95,12.77,19.37,12.77,30.99Z"/>
  <circle class="cls-7" cx="372.4" cy="9.53" r="7.03"/>
</svg>