<?xml version="1.0" encoding="UTF-8"?>
<svg id="Layer_1" data-name="Layer 1" xmlns="http://www.w3.org/2000/svg" viewBox="0 0 98.84 113.34">
  <defs>
    <style>
      .cls-1 {
        fill: none;
        stroke: #000;
        stroke-width: 5px;
      }

      .cls-1, .cls-2 {
        stroke-miterlimit: 10;
      }

      .cls-2 {
        stroke: #231f20;
        stroke-width: 3.23px;
      }
    </style>
  </defs>
  <path class="cls-2" d="m83.67,13.95c-13.15,0-24.58,4.38-33.96,13.03l-.48.44-.48-.44c-9.31-8.42-20.61-12.69-33.58-12.69H1.62v97.44h13.55c4.11,0,8.12-.44,11.92-1.3l-1.22-2.62c-3.41.74-7,1.11-10.7,1.11H4.65V17.1h10.52c12.13,0,22.72,3.99,31.48,11.87l.54.49-.5.53c-8.92,9.51-13.44,20.5-13.44,32.68,0,7.26,1.61,14.15,4.78,20.46,2.21,4.39,5.24,8.63,9.01,12.58l.3.32c.19.2.37.4.57.59.51.52,1.07,1.05,1.69,1.63.46-.43.9-.86,1.32-1.28.36-.36.69-.72,1.03-1.08l.18-.2c3.71-3.95,6.68-8.18,8.83-12.55,3.06-6.21,4.61-12.99,4.61-20.13,0-12.33-4.64-23.45-13.79-33.05l-.5-.53.54-.49c8.83-8.08,19.54-12.18,31.84-12.18h10.52v94.62h3.04V13.95h-13.56Zm-21.12,49.06c0,7.44-1.76,14.43-5.24,20.79-1.88,3.43-4.3,6.75-7.2,9.86l-.52.55-.52-.55c-2.96-3.13-5.43-6.44-7.34-9.86-3.6-6.44-5.43-13.55-5.43-21.13,0-11.47,4.19-21.78,12.44-30.64l.52-.55.52.55c8.47,8.95,12.77,19.37,12.77,30.99Z"/>
  <circle class="cls-1" cx="49.42" cy="9.53" r="7.03"/>
</svg>